<?xml version="1.0" encoding="UTF-8" standalone="no"?>
<svg
   version="1.1"
   id="svg824"
   xml:space="preserve"
   width="63.972"
   height="27.719465"
   viewBox="0 0 63.972 27.719464"
   sodipodi:docname="Button.svg"
   inkscape:version="1.1-alpha (c0348e27, 2021-02-14)"
   xmlns:inkscape="http://www.inkscape.org/namespaces/inkscape"
   xmlns:sodipodi="http://sodipodi.sourceforge.net/DTD/sodipodi-0.dtd"
   xmlns="http://www.w3.org/2000/svg"
   xmlns:svg="http://www.w3.org/2000/svg"><defs
     id="defs828"><clipPath
       clipPathUnits="userSpaceOnUse"
       id="clipPath840"><path
         d="M 0,842 H 595 V 0 H 0 Z"
         id="path838" /></clipPath><clipPath
       clipPathUnits="userSpaceOnUse"
       id="clipPath19754"><path
         d="m 64.559,821.785 0.198,-0.543 -0.567,-0.464 1.94,-0.631 0.285,1.046 1.464,0.049 0.586,-0.976 2.159,0.818 -10e-4,0.056 -3.489,5.308 z m 2.7,1.61 0.348,-0.948 -0.829,-0.146 z m -9.209,-1.818 0.33,-0.216 -0.244,-0.276 1.415,-0.917 0.676,2.063 1.142,-1.757 0.949,1.66 0.759,-2.266 1.113,0.91 -0.158,0.052 0.527,0.955 -1.51,4.153 -1.644,-1.7 -1.708,2.154 z m -7.21,4.571 c -0.335,-0.088 -0.65,-0.216 -0.945,-0.384 v 0 c -0.295,-0.167 -0.561,-0.366 -0.797,-0.595 v 0 c -0.238,-0.231 -0.439,-0.487 -0.607,-0.771 v 0 c -0.167,-0.282 -0.288,-0.584 -0.363,-0.902 v 0 c -0.073,-0.318 -0.096,-0.649 -0.065,-0.993 v 0 c 0.029,-0.344 0.124,-0.69 0.281,-1.039 v 0 c 0.14,-0.31 0.321,-0.564 0.544,-0.758 v 0 c 0.223,-0.197 0.468,-0.342 0.735,-0.436 v 0 c 0.268,-0.096 0.547,-0.146 0.837,-0.15 v 0 c 0.29,-0.005 0.572,0.025 0.846,0.09 v 0 c 0.275,0.065 0.531,0.161 0.771,0.286 v 0 c 0.239,0.126 0.442,0.272 0.61,0.439 v 0 c 0.338,0.348 0.594,0.715 0.766,1.097 v 0 c 0.172,0.383 0.278,0.763 0.317,1.14 v 0 c 0.039,0.377 0.024,0.74 -0.049,1.09 v 0 c -0.072,0.351 -0.179,0.666 -0.324,0.945 v 0 c -0.078,0.149 -0.196,0.296 -0.352,0.442 v 0 c -0.156,0.147 -0.345,0.271 -0.568,0.374 v 0 c -0.223,0.101 -0.472,0.167 -0.749,0.199 v 0 c -0.075,0.008 -0.151,0.012 -0.229,0.012 v 0 c -0.21,0 -0.429,-0.029 -0.659,-0.086 m -0.383,-4.401 c -0.135,0.007 -0.255,0.044 -0.359,0.111 v 0 c -0.106,0.068 -0.191,0.171 -0.258,0.31 v 0 c -0.068,0.139 -0.1,0.32 -0.094,0.544 v 0 c 0,0.236 0.04,0.453 0.121,0.648 v 0 c 0.082,0.195 0.186,0.361 0.311,0.498 v 0 c 0.125,0.138 0.264,0.244 0.417,0.321 v 0 c 0.154,0.077 0.305,0.119 0.454,0.128 v 0 c 0.148,0.01 0.286,-0.018 0.415,-0.083 v 0 c 0.128,-0.065 0.226,-0.171 0.295,-0.32 v 0 c 0.042,-0.084 0.075,-0.179 0.098,-0.286 v 0 c 0.024,-0.107 0.029,-0.225 0.017,-0.356 v 0 c -0.011,-0.13 -0.043,-0.273 -0.097,-0.428 v 0 c -0.053,-0.156 -0.139,-0.324 -0.255,-0.506 v 0 c -0.079,-0.12 -0.176,-0.226 -0.292,-0.317 v 0 c -0.116,-0.091 -0.24,-0.159 -0.373,-0.205 v 0 c -0.116,-0.041 -0.232,-0.06 -0.35,-0.06 v 0 c -0.017,0 -0.034,0 -0.05,10e-4 m -4.516,2.087 -2.663,2.208 -0.091,-5.797 2,0.126 -0.097,1.644 2.669,-1.331 0.321,5.317 -2.077,0.14 z m 24.642,1.979 0.04,-4.673 0.03,-0.045 -0.029,-0.011 0.007,-0.874 3.659,0.369 -0.083,1.959 -1.708,-0.356 0.181,3.923 z m -14.245,0.272 c 0,0 -0.204,-0.02 -0.613,-0.059 v 0 c -0.409,-0.039 -1.055,-0.11 -1.937,-0.213 v 0 l 0.111,-5.442 1.687,-0.175 0.021,1.192 1.692,-1.248 0.837,0.945 -0.208,0.135 0.122,0.357 -1.126,0.738 c 0.325,0.204 0.598,0.446 0.818,0.724 v 0 c 0.221,0.279 0.383,0.566 0.484,0.862 v 0 c 0.103,0.295 0.144,0.583 0.123,0.863 v 0 c -0.022,0.281 -0.107,0.528 -0.259,0.739 v 0 c -0.15,0.211 -0.371,0.373 -0.661,0.485 v 0 c -0.205,0.078 -0.447,0.117 -0.725,0.117 v 0 c -0.116,0 -0.238,-0.006 -0.366,-0.02 m -0.836,-1.834 c 0.223,0.09 0.4,0.135 0.529,0.137 v 0 c 0.131,0.003 0.227,-0.019 0.29,-0.063 v 0 c 0.062,-0.044 0.103,-0.099 0.118,-0.164 v 0 c 0.016,-0.065 0.023,-0.12 0.017,-0.167 v 0 c -0.004,-0.047 -0.006,-0.072 -0.006,-0.076 v 0 c -0.009,-0.042 -0.036,-0.099 -0.08,-0.171 v 0 c -0.044,-0.072 -0.108,-0.147 -0.192,-0.226 v 0 c -0.084,-0.08 -0.187,-0.154 -0.31,-0.224 v 0 c -0.124,-0.07 -0.269,-0.123 -0.436,-0.16 v 0 z"
         id="path19752" /></clipPath><clipPath
       clipPathUnits="userSpaceOnUse"
       id="clipPath19768"><path
         d="M 0,842 H 595 V 0 H 0 Z"
         id="path19766" /></clipPath><clipPath
       clipPathUnits="userSpaceOnUse"
       id="clipPath19796"><path
         d="m 121.661,824.83 0.021,1.262 -2.042,-0.245 0.111,-5.602 1.826,0.209 0.015,0.885 1.352,-1.275 0.975,1.463 -1.714,1.443 1.945,1.804 -1.367,1.61 z m -4.812,1.405 c -0.221,-0.021 -0.412,-0.057 -0.575,-0.104 v 0 c -0.162,-0.05 -0.29,-0.099 -0.384,-0.151 v 0 c -0.092,-0.051 -0.138,-0.076 -0.138,-0.076 v 0 c -0.219,-0.144 -0.433,-0.337 -0.645,-0.578 v 0 c -0.211,-0.243 -0.395,-0.514 -0.55,-0.816 v 0 c -0.156,-0.302 -0.277,-0.625 -0.363,-0.969 v 0 c -0.086,-0.343 -0.113,-0.687 -0.08,-1.031 v 0 c 0.032,-0.344 0.132,-0.679 0.299,-1.004 v 0 c 0.168,-0.325 0.425,-0.622 0.774,-0.891 v 0 c 0.242,-0.187 0.505,-0.316 0.791,-0.391 v 0 c 0.286,-0.075 0.577,-0.106 0.871,-0.094 v 0 c 0.295,0.011 0.584,0.055 0.867,0.133 v 0 c 0.284,0.076 0.544,0.172 0.781,0.289 v 0 c 0.237,0.116 0.442,0.243 0.614,0.383 v 0 c 0.171,0.139 0.292,0.276 0.361,0.411 v 0 l -1.358,1.449 c -0.358,-0.329 -0.659,-0.536 -0.902,-0.62 v 0 c -0.244,-0.084 -0.438,-0.092 -0.579,-0.028 v 0 c -0.141,0.065 -0.251,0.167 -0.327,0.304 v 0 c -0.077,0.137 -0.126,0.261 -0.147,0.373 v 0 c -0.021,0.111 -0.031,0.171 -0.031,0.181 v 0 c 0,0 0.012,0.05 0.035,0.153 v 0 c 0.023,0.103 0.062,0.218 0.118,0.345 v 0 c 0.056,0.127 0.13,0.253 0.223,0.377 v 0 c 0.093,0.122 0.208,0.203 0.345,0.243 v 0 c 0.137,0.039 0.299,0.022 0.488,-0.052 v 0 c 0.188,-0.074 0.407,-0.244 0.658,-0.509 v 0 l 1.22,1.499 c -0.278,0.334 -0.559,0.587 -0.84,0.759 v 0 c -0.281,0.172 -0.551,0.289 -0.808,0.352 v 0 c -0.194,0.047 -0.377,0.071 -0.549,0.071 v 0 c -0.058,0 -0.114,-0.003 -0.169,-0.008 m -11.701,0 c -0.221,-0.021 -0.412,-0.057 -0.575,-0.104 v 0 c -0.162,-0.05 -0.29,-0.099 -0.384,-0.151 v 0 c -0.092,-0.051 -0.139,-0.076 -0.139,-0.076 v 0 c -0.218,-0.144 -0.433,-0.337 -0.644,-0.578 v 0 c -0.212,-0.243 -0.396,-0.514 -0.551,-0.816 v 0 c -0.155,-0.302 -0.277,-0.625 -0.362,-0.969 v 0 c -0.086,-0.343 -0.113,-0.687 -0.08,-1.031 v 0 c 0.032,-0.344 0.132,-0.679 0.3,-1.004 v 0 c 0.166,-0.325 0.424,-0.622 0.773,-0.891 v 0 c 0.242,-0.187 0.505,-0.316 0.791,-0.391 v 0 c 0.286,-0.075 0.576,-0.106 0.871,-0.094 v 0 c 0.295,0.011 0.584,0.055 0.868,0.133 v 0 c 0.283,0.076 0.543,0.172 0.78,0.289 v 0 c 0.237,0.116 0.442,0.243 0.614,0.383 v 0 c 0.171,0.139 0.292,0.276 0.362,0.411 v 0 l -1.359,1.449 c -0.358,-0.329 -0.659,-0.536 -0.902,-0.62 v 0 c -0.245,-0.084 -0.437,-0.092 -0.579,-0.028 v 0 c -0.142,0.065 -0.251,0.167 -0.328,0.304 v 0 c -0.076,0.137 -0.125,0.261 -0.146,0.373 v 0 c -0.021,0.111 -0.031,0.171 -0.031,0.181 v 0 c 0,0 0.012,0.05 0.034,0.153 v 0 c 0.024,0.103 0.063,0.218 0.119,0.345 v 0 c 0.056,0.127 0.13,0.253 0.222,0.377 v 0 c 0.094,0.122 0.209,0.203 0.346,0.243 v 0 c 0.138,0.039 0.3,0.022 0.488,-0.052 v 0 c 0.188,-0.074 0.407,-0.244 0.659,-0.509 v 0 l 1.219,1.499 c -0.279,0.334 -0.559,0.587 -0.84,0.759 v 0 c -0.28,0.172 -0.55,0.289 -0.808,0.352 v 0 c -0.194,0.047 -0.377,0.071 -0.55,0.071 v 0 c -0.057,0 -0.113,-0.003 -0.168,-0.008 m 2.854,-0.422 0.048,-5.603 3.66,0.369 -0.084,1.959 -1.708,-0.356 0.181,3.923 z m 3.958,0.034 -0.069,-5.602 1.833,0.209 0.285,5.638 z"
         id="path19794" /></clipPath><clipPath
       clipPathUnits="userSpaceOnUse"
       id="clipPath19808"><path
         d="M 0,842 H 595 V 0 H 0 Z"
         id="path19806" /></clipPath><clipPath
       clipPathUnits="userSpaceOnUse"
       id="clipPath19940"><path
         d="m 169.429,824.83 0.022,1.262 -2.042,-0.245 0.111,-5.602 1.826,0.209 0.014,0.885 1.352,-1.275 0.976,1.463 -1.715,1.443 1.905,1.767 -10e-4,0.086 -1.325,1.561 z m -4.811,1.405 c -0.221,-0.021 -0.412,-0.057 -0.576,-0.104 v 0 c -0.162,-0.05 -0.29,-0.099 -0.382,-0.151 v 0 c -0.094,-0.051 -0.14,-0.076 -0.14,-0.076 v 0 c -0.219,-0.144 -0.433,-0.337 -0.644,-0.578 v 0 c -0.212,-0.243 -0.395,-0.514 -0.551,-0.816 v 0 c -0.059,-0.114 -0.113,-0.231 -0.161,-0.351 v 0 c 0.055,-0.318 0.064,-0.647 0.029,-0.987 v 0 c -0.035,-0.33 -0.12,-0.663 -0.257,-0.998 v 0 c 0.052,-0.227 0.133,-0.449 0.246,-0.668 v 0 c 0.167,-0.325 0.425,-0.622 0.774,-0.891 v 0 c 0.241,-0.187 0.505,-0.316 0.791,-0.391 v 0 c 0.285,-0.075 0.576,-0.106 0.871,-0.094 v 0 c 0.294,0.011 0.583,0.055 0.868,0.133 v 0 c 0.282,0.076 0.542,0.172 0.78,0.289 v 0 c 0.237,0.116 0.441,0.243 0.613,0.383 v 0 c 0.173,0.139 0.293,0.276 0.363,0.411 v 0 l -1.359,1.449 c -0.358,-0.329 -0.659,-0.536 -0.903,-0.62 v 0 c -0.244,-0.084 -0.437,-0.092 -0.579,-0.028 v 0 c -0.141,0.065 -0.251,0.167 -0.327,0.304 v 0 c -0.077,0.137 -0.125,0.261 -0.146,0.373 v 0 c -0.021,0.111 -0.032,0.171 -0.032,0.181 v 0 c 0,0 0.012,0.05 0.035,0.153 v 0 c 0.024,0.103 0.063,0.218 0.119,0.345 v 0 c 0.055,0.127 0.13,0.253 0.222,0.377 v 0 c 0.094,0.122 0.208,0.203 0.346,0.243 v 0 c 0.137,0.039 0.3,0.022 0.488,-0.052 v 0 c 0.187,-0.074 0.408,-0.244 0.658,-0.509 v 0 l 1.219,1.499 c -0.278,0.334 -0.559,0.587 -0.839,0.759 v 0 c -0.281,0.172 -0.55,0.289 -0.809,0.352 v 0 c -0.193,0.047 -0.376,0.071 -0.548,0.071 v 0 c -0.058,0 -0.114,-0.003 -0.169,-0.008 m 13.892,-0.032 c 0,0 -0.2,-0.025 -0.602,-0.072 v 0 c -0.403,-0.05 -1.024,-0.155 -1.864,-0.318 v 0 l 0.111,-5.442 c 0.478,-0.061 0.879,-0.094 1.198,-0.098 v 0 c 0.32,-0.005 0.578,0.003 0.77,0.024 v 0 c 0.193,0.021 0.331,0.044 0.412,0.07 v 0 c 0.081,0.025 0.121,0.038 0.121,0.038 v 0 c 0.41,0.191 0.763,0.426 1.063,0.708 v 0 c 0.3,0.28 0.547,0.585 0.739,0.913 v 0 c 0.193,0.327 0.332,0.666 0.418,1.017 v 0 c 0.086,0.351 0.122,0.691 0.109,1.021 v 0 c -0.015,0.33 -0.077,0.638 -0.189,0.926 v 0 c -0.111,0.288 -0.271,0.533 -0.481,0.733 v 0 c -0.209,0.199 -0.464,0.345 -0.766,0.436 v 0 c -0.181,0.053 -0.377,0.081 -0.59,0.081 v 0 c -0.142,0 -0.292,-0.013 -0.449,-0.037 m -0.599,-2.251 c 0.209,0.167 0.386,0.258 0.53,0.272 v 0 c 0.143,0.014 0.258,-0.015 0.341,-0.087 v 0 c 0.084,-0.072 0.149,-0.164 0.196,-0.275 v 0 c 0.045,-0.112 0.076,-0.208 0.09,-0.289 v 0 c 0.014,-0.082 0.021,-0.127 0.021,-0.137 v 0 -0.125 c 0,-0.074 -0.018,-0.176 -0.052,-0.306 v 0 c -0.035,-0.13 -0.095,-0.262 -0.178,-0.393 v 0 c -0.084,-0.133 -0.208,-0.261 -0.373,-0.385 v 0 c -0.165,-0.123 -0.38,-0.215 -0.645,-0.275 v 0 z m -18.649,2.196 c -0.335,-0.088 -0.65,-0.216 -0.944,-0.384 v 0 c -0.295,-0.167 -0.561,-0.366 -0.798,-0.595 v 0 c -0.237,-0.231 -0.439,-0.487 -0.607,-0.771 v 0 c -0.167,-0.282 -0.288,-0.584 -0.363,-0.902 v 0 c -0.073,-0.318 -0.096,-0.649 -0.065,-0.993 v 0 c 0,0 0,-0.001 0,-0.001 v 0 l 0.171,0.036 0.038,-0.901 c 0.023,-0.058 0.047,-0.115 0.073,-0.173 v 0 c 0.139,-0.31 0.321,-0.564 0.543,-0.758 v 0 c 0.223,-0.197 0.469,-0.342 0.736,-0.436 v 0 c 0.267,-0.096 0.546,-0.146 0.836,-0.15 v 0 c 0.29,-0.005 0.573,0.025 0.847,0.09 v 0 c 0.274,0.065 0.53,0.161 0.77,0.286 v 0 c 0.239,0.126 0.443,0.272 0.61,0.439 v 0 c 0.338,0.348 0.595,0.715 0.767,1.097 v 0 c 0.021,0.047 0.041,0.095 0.06,0.142 v 0 c -0.025,0.111 -0.043,0.223 -0.054,0.336 v 0 c -0.032,0.344 -0.005,0.688 0.08,1.031 v 0 c 0.054,0.214 0.121,0.42 0.202,0.618 v 0 c -0.006,0.035 -0.013,0.069 -0.02,0.103 v 0 c -0.072,0.351 -0.18,0.666 -0.325,0.945 v 0 c -0.078,0.149 -0.196,0.296 -0.351,0.442 v 0 c -0.156,0.147 -0.346,0.271 -0.569,0.374 v 0 c -0.222,0.101 -0.472,0.167 -0.749,0.199 v 0 c -0.075,0.008 -0.151,0.012 -0.229,0.012 v 0 c -0.21,0 -0.429,-0.029 -0.659,-0.086 m -0.383,-4.401 c -0.135,0.007 -0.255,0.044 -0.359,0.111 v 0 c -0.105,0.068 -0.191,0.171 -0.258,0.31 v 0 c -0.068,0.139 -0.099,0.32 -0.094,0.544 v 0 c 0,0.236 0.04,0.453 0.121,0.648 v 0 c 0.082,0.195 0.186,0.361 0.311,0.498 v 0 c 0.126,0.138 0.264,0.244 0.418,0.321 v 0 c 0.153,0.077 0.304,0.119 0.453,0.128 v 0 c 0.148,0.01 0.287,-0.018 0.415,-0.083 v 0 c 0.128,-0.065 0.227,-0.171 0.296,-0.32 v 0 c 0.041,-0.084 0.074,-0.179 0.097,-0.286 v 0 c 0.024,-0.107 0.03,-0.225 0.018,-0.356 v 0 c -0.012,-0.13 -0.044,-0.273 -0.098,-0.428 v 0 c -0.053,-0.156 -0.138,-0.324 -0.255,-0.506 v 0 c -0.078,-0.12 -0.176,-0.226 -0.292,-0.317 v 0 c -0.116,-0.091 -0.24,-0.159 -0.373,-0.205 v 0 c -0.116,-0.041 -0.233,-0.06 -0.35,-0.06 v 0 c -0.017,0 -0.034,0 -0.05,10e-4 m -5.848,4.066 0.049,-5.603 3.66,0.369 -0.046,1.058 c -0.114,0.29 -0.184,0.578 -0.209,0.865 v 0 l -1.536,-0.32 0.179,3.923 z m 18.837,-0.056 0.009,-0.934 0.041,-0.049 -0.04,-0.037 0.04,-4.409 3.729,0.203 0.034,1.923 -1.993,-0.188 0.014,0.383 1.163,0.091 0.146,1.22 -1.268,-0.091 0.007,0.334 1.749,0.077 0.217,1.762 z"
         id="path19938" /></clipPath></defs><sodipodi:namedview
     id="namedview826"
     pagecolor="#ffffff"
     bordercolor="#666666"
     borderopacity="1.0"
     objecttolerance="10.0"
     gridtolerance="10.0"
     guidetolerance="10.0"
     inkscape:pageshadow="2"
     inkscape:pageopacity="0.0"
     inkscape:pagecheckerboard="0"
     showgrid="false"
     fit-margin-top="0"
     fit-margin-left="0"
     fit-margin-right="0"
     fit-margin-bottom="0"
     inkscape:zoom="2.1298381"
     inkscape:cx="30.753511"
     inkscape:cy="13.850818"
     inkscape:window-width="1312"
     inkscape:window-height="957"
     inkscape:window-x="0"
     inkscape:window-y="23"
     inkscape:window-maximized="0"
     inkscape:current-layer="g836" /><g
     id="g830"
     inkscape:groupmode="layer"
     inkscape:label="Button"
     transform="matrix(1.3333333,0,0,-1.3333333,-48.135732,1076.8789)"><g
       id="g834"><g
         id="g836"
         clip-path="url(#clipPath840)"><g
           id="g19272"
           transform="translate(82.1138,805.9106)"><path
             d="m 0,0 h -44.044 c -1.083,0 -1.968,-0.885 -1.968,-1.968 v -15.105 c 0,-1.083 0.886,-1.968 1.968,-1.968 H 0 c 1.082,0 1.967,0.886 1.967,1.968 V -1.968 C 1.967,-0.886 1.083,0 0,0"
             style="fill:#808080;fill-opacity:1;fill-rule:evenodd;stroke:none"
             id="path19274" /></g><g
           id="g19276"
           transform="translate(82.1138,807.6592)"><path
             d="m 0,0 h -44.044 c -1.083,0 -1.968,-0.885 -1.968,-1.967 v -15.106 c 0,-1.082 0.886,-1.967 1.968,-1.967 H 0 c 1.082,0 1.967,0.886 1.967,1.967 V -1.967 C 1.967,-0.885 1.083,0 0,0"
             style="fill:#b3b3b3;fill-opacity:1;fill-rule:evenodd;stroke:none"
             id="path19278" /></g><g
           id="g19280"
           transform="translate(81.7397,806.9922)"><path
             d="m 0,0 h -43.296 c -0.98,0 -1.783,-0.802 -1.783,-1.783 v -14.139 c 0,-0.981 0.803,-1.784 1.783,-1.784 H 0 c 0.98,0 1.783,0.803 1.783,1.784 V -1.783 C 1.783,-0.803 0.981,0 0,0"
             style="fill:#e6e6e6;fill-opacity:1;fill-rule:evenodd;stroke:none"
             id="path19282" /></g><g
           id="g19284"
           transform="translate(81.7397,806.9922)"><path
             d="m 0,0 h -43.296 c -0.981,0 -1.783,-0.802 -1.783,-1.783 v -9.875 H 1.783 v 9.875 C 1.783,-0.803 0.981,0 0,0"
             style="fill:#f1f1f1;fill-opacity:1;fill-rule:evenodd;stroke:none"
             id="path19286" /></g><g
           id="g19288"
           transform="translate(80.3867,805.7388)"><path
             d="m 0,0 h -40.59 c -0.791,0 -1.437,-0.646 -1.437,-1.437 v -12.324 c 0,-0.791 0.647,-1.437 1.437,-1.437 H 0 c 0.791,0 1.438,0.647 1.438,1.437 V -1.437 C 1.438,-0.646 0.791,0 0,0"
             style="fill:#b3b3b3;fill-opacity:1;fill-rule:evenodd;stroke:none"
             id="path19290" /></g><g
           id="g19292"
           transform="translate(79.9224,805.3184)"><path
             d="m 0,0 h -39.661 c -0.727,0 -1.321,-0.595 -1.321,-1.321 v -11.716 c 0,-0.727 0.595,-1.321 1.321,-1.321 H 0 c 0.726,0 1.321,0.595 1.321,1.321 V -1.321 C 1.321,-0.595 0.727,0 0,0"
             style="fill:#62380e;fill-opacity:1;fill-rule:evenodd;stroke:none"
             id="path19294" /></g><g
           id="g19296"
           transform="translate(79.1953,804.7266)"><path
             d="m 0,0 h -38.207 c -0.659,0 -1.198,-0.532 -1.198,-1.183 v -10.809 c 0,-0.651 0.539,-1.182 1.198,-1.182 H 0 c 0.659,0 1.198,0.532 1.198,1.182 V -1.183 C 1.198,-0.532 0.659,0 0,0"
             style="fill:#7c4711;fill-opacity:1;fill-rule:evenodd;stroke:none"
             id="path19298" /></g><g
           id="g19300"
           transform="translate(38.9404,792.9272)"><path
             d="M 0,0 3.575,1.093 0,0.875 Z"
             style="fill:#62380e;fill-opacity:1;fill-rule:evenodd;stroke:none"
             id="path19302" /></g><g
           id="g19304"
           transform="translate(45.6309,793.7695)"><path
             d="M 0,0 8.199,-0.583 23.211,0.219 12.061,0.291 Z"
             style="fill:#62380e;fill-opacity:1;fill-rule:evenodd;stroke:none"
             id="path19306" /></g><g
           id="g19308"
           transform="translate(81.2432,792.2817)"><path
             d="M 0,0 V 0.723 L -9.742,-0.115 Z"
             style="fill:#62380e;fill-opacity:1;fill-rule:evenodd;stroke:none"
             id="path19310" /></g><g
           id="g19312"
           transform="translate(81.2432,802.7817)"><path
             d="M 0,0 V 0.838 L -5.515,0.364 Z"
             style="fill:#62380e;fill-opacity:1;fill-rule:evenodd;stroke:none"
             id="path19314" /></g><g
           id="g19316"
           transform="translate(45.7412,803.5098)"><path
             d="m 0,0 4.737,-0.619 9.109,0.327 -8.964,0.584 z"
             style="fill:#62380e;fill-opacity:1;fill-rule:evenodd;stroke:none"
             id="path19318" /></g><g
           id="g19320"
           transform="translate(67.021,795.9551)"><path
             d="M 0,0 12.353,-0.036 4.701,0.474 Z"
             style="fill:#62380e;fill-opacity:1;fill-rule:evenodd;stroke:none"
             id="path19322" /></g><g
           id="g19324"
           transform="translate(81.7397,790.0605)"><path
             d="m 0,0 h -43.296 c -0.981,0 -1.783,0.802 -1.783,1.783 V 1.009 c 0,-0.981 0.803,-1.783 1.783,-1.783 H 0 c 0.98,0 1.783,0.803 1.783,1.783 V 1.783 C 1.783,0.802 0.981,0 0,0"
             style="fill:#cccccc;fill-opacity:1;fill-rule:evenodd;stroke:none"
             id="path19326" /></g><g
           id="g19328"
           transform="translate(81.7397,806.9922)"><path
             d="m 0,0 h -43.296 c -0.981,0 -1.783,-0.802 -1.783,-1.783 v -0.655 c 0,0.98 0.802,1.783 1.783,1.783 H 0 c 0.981,0 1.783,-0.803 1.783,-1.783 v 0.655 C 1.783,-0.802 0.981,0 0,0"
             style="fill:#ffffff;fill-opacity:1;fill-rule:evenodd;stroke:none"
             id="path19330" /></g><g
           id="g19332"
           transform="translate(75.856,806.1011)"><path
             d="M 0,0 1.157,0.891 H 0.592 Z"
             style="fill:#808080;fill-opacity:1;fill-rule:evenodd;stroke:none"
             id="path19334" /></g><g
           id="g19336"
           transform="translate(52.8589,789.2866)"><path
             d="M 0,0 0.31,1.253 -1.075,0 Z"
             style="fill:#808080;fill-opacity:1;fill-rule:evenodd;stroke:none"
             id="path19338" /></g><g
           id="g19340"
           transform="translate(47.1758,805.7383)"><path
             d="M 0,0 H 0.893 L -0.82,0.753 Z"
             style="fill:#808080;fill-opacity:1;fill-rule:evenodd;stroke:none"
             id="path19342" /></g><path
           d="m 38.94,800.726 h 42.303 v 0.563 H 38.94 Z"
           style="fill:#4e2815;fill-opacity:1;fill-rule:evenodd;stroke:none"
           id="path19344" /><path
           d="m 38.94,794.601 h 42.303 v 0.563 H 38.94 Z"
           style="fill:#4e2815;fill-opacity:1;fill-rule:evenodd;stroke:none"
           id="path19346" /><g
           id="g19348"
           transform="translate(41.9878,800.7261)"><path
             d="M 0,0 4.157,-1.907 1.344,0 Z"
             style="fill:#4e2815;fill-opacity:1;fill-rule:evenodd;stroke:none"
             id="path19350" /></g><g
           id="g19352"
           transform="translate(67.5342,801.2886)"><path
             d="M 0,0 -0.563,-0.25 1.344,-2 0.407,-0.25 1.719,1.281 Z"
             style="fill:#4e2815;fill-opacity:1;fill-rule:evenodd;stroke:none"
             id="path19354" /></g><g
           id="g19356"
           transform="translate(69.6914,793.3354)"><path
             d="M 0,0 2.516,1.265 H 1.391 Z"
             style="fill:#4e2815;fill-opacity:1;fill-rule:evenodd;stroke:none"
             id="path19358" /></g></g></g></g></svg>
